<svg width="136" height="40" viewBox="0 0 136 40" fill="none" xmlns="http://www.w3.org/2000/svg">
<path d="M16.6147 0.327232C17.3934 -0.109077 18.3527 -0.109077 19.1314 0.327232C19.1314 0.327232 29.1257 5.92712 29.7474 6.27544C30.1712 6.48986 30.2096 7.0655 29.7474 7.32508C28.8933 7.80193 27.6834 8.47667 26.8423 8.94561C26.2357 9.28387 25.497 9.28302 24.891 8.9435L19.1314 5.71635C18.3527 5.28004 17.3934 5.28004 16.6147 5.71635L10.8484 8.94721C10.2421 9.28695 9.50347 9.28788 8.8965 8.94924C8.02809 8.46475 6.7662 7.76106 5.90786 7.28379C5.51524 7.11518 5.43352 6.61464 5.90786 6.32634L16.6147 0.327232Z" fill="white"/>
<path d="M129.121 9.04785C132.596 9.0481 135.414 11.8663 135.414 15.3418V15.6035C135.414 19.079 132.596 21.8962 129.121 21.8965C127.887 21.8965 126.735 21.5416 125.763 20.9277V26.3027C125.763 26.3958 125.687 26.4715 125.594 26.4717H122.996C122.902 26.4716 122.827 26.3959 122.827 26.3027V15.3418C122.827 11.8661 125.645 9.04785 129.121 9.04785ZM74.9468 9.04785C78.4224 9.04785 81.2397 11.8661 81.2397 15.3418V21.3477C81.2397 21.4407 81.1648 21.5164 81.0718 21.5166H78.4731C78.3799 21.5166 78.3042 21.4409 78.3042 21.3477V20.7695C77.3426 21.4592 76.1951 21.8965 74.9468 21.8965C71.4712 21.8964 68.6538 19.0791 68.6538 15.6035V15.3418C68.6538 11.8662 71.4712 9.04793 74.9468 9.04785ZM114.356 9.04785C117.832 9.04785 120.65 11.8661 120.65 15.3418V21.3477C120.65 21.4408 120.574 21.5165 120.481 21.5166H117.882C117.789 21.5165 117.713 21.4408 117.713 21.3477V20.6523C116.788 21.351 115.58 21.8965 114.356 21.8965C110.88 21.8963 108.063 19.0791 108.063 15.6035V15.3418C108.063 11.8663 110.88 9.04805 114.356 9.04785ZM62.061 9.04785C64.9246 9.04808 67.2463 11.3698 67.2466 14.2334V21.3477C67.2466 21.4408 67.1707 21.5165 67.0776 21.5166H64.479C64.3859 21.5165 64.3101 21.4408 64.3101 21.3477V14.2334C64.3098 12.9912 63.3032 11.9846 62.061 11.9844C60.8187 11.9844 59.8113 12.9911 59.811 14.2334V21.3477C59.811 21.4408 59.7352 21.5165 59.6421 21.5166H57.0435C56.9503 21.5165 56.8745 21.4408 56.8745 21.3477V14.2334C56.8743 12.9913 55.8676 11.9846 54.6255 11.9844C53.3831 11.9844 52.3757 12.9911 52.3755 14.2334V21.3477C52.3755 21.4409 52.2997 21.5166 52.2065 21.5166H49.6079C49.5149 21.5164 49.4399 21.4407 49.4399 21.3477V14.2334C49.4402 11.3697 51.7617 9.04785 54.6255 9.04785C56.0834 9.04797 57.4014 9.65067 58.3433 10.6191C59.2852 9.65062 60.603 9.04785 62.061 9.04785ZM86.4448 9.56055C86.538 9.56055 86.6137 9.63635 86.6138 9.72949V21.3477C86.6138 21.4409 86.538 21.5166 86.4448 21.5166H83.8472C83.754 21.5166 83.6782 21.4409 83.6782 21.3477V9.72949C83.6783 9.63635 83.754 9.56055 83.8472 9.56055H86.4448ZM92.0884 4.37988C92.1814 4.37988 92.2571 4.45487 92.2573 4.54785V21.3477C92.2573 21.4409 92.1816 21.5166 92.0884 21.5166H89.4907C89.3975 21.5166 89.3218 21.4409 89.3218 21.3477V4.54785C89.322 4.45487 89.3977 4.37988 89.4907 4.37988H92.0884ZM97.8442 4.37988C97.9373 4.37988 98.0129 4.45487 98.0132 4.54785V9.56055H100.641C100.734 9.56055 100.81 9.63635 100.81 9.72949V12.2158C100.81 12.309 100.734 12.3848 100.641 12.3848H98.0132V21.3477C98.0132 21.4409 97.9374 21.5166 97.8442 21.5166H95.2466C95.1534 21.5166 95.0776 21.4409 95.0776 21.3477V4.54785C95.0779 4.45487 95.1535 4.37988 95.2466 4.37988H97.8442ZM107.171 9.46387C107.265 9.46387 107.34 9.5396 107.34 9.63281V12.2305C107.34 12.2752 107.322 12.318 107.291 12.3496C107.259 12.3813 107.216 12.3994 107.171 12.3994C105.704 12.3994 104.515 13.5887 104.515 15.0557V21.3477C104.515 21.4409 104.439 21.5166 104.346 21.5166H101.748C101.655 21.5164 101.58 21.4407 101.58 21.3477V15.0557C101.58 11.9673 104.083 9.46387 107.171 9.46387ZM74.9468 11.9844C73.0926 11.9844 71.5894 13.4876 71.5894 15.3418V15.6035C71.5894 17.4577 73.0926 18.9609 74.9468 18.9609C76.801 18.9609 78.3042 17.4578 78.3042 15.6035V15.3418C78.3042 13.4875 76.801 11.9844 74.9468 11.9844ZM114.356 11.9844C112.502 11.9846 110.999 13.4877 110.999 15.3418V15.6035C110.999 17.4577 112.502 18.9607 114.356 18.9609C116.21 18.9609 117.713 17.4578 117.713 15.6035V15.3418C117.713 13.4875 116.21 11.9844 114.356 11.9844ZM129.121 11.9844C127.266 11.9844 125.763 13.4875 125.763 15.3418V15.6035C125.763 17.4578 127.266 18.9609 129.121 18.9609C130.975 18.9607 132.478 17.4576 132.478 15.6035V15.3418C132.478 13.4877 130.975 11.9846 129.121 11.9844ZM85.1167 4.37988C86.0616 4.37988 86.8276 5.14588 86.8276 6.09082C86.8275 7.03563 86.0615 7.80176 85.1167 7.80176C84.172 7.80159 83.4059 7.03552 83.4058 6.09082C83.4058 5.14598 84.1719 4.38005 85.1167 4.37988Z" fill="white"/>
<path d="M31.918 9.28063C31.918 9.28063 33.1661 8.52836 34.4883 9.28063C35.2667 9.71699 35.7461 10.5234 35.7461 11.3959V20.1048L35.0547 19.7064C34.3488 19.2991 33.5474 19.0844 32.7324 19.0843C32.0317 19.0843 31.3413 19.2439 30.7129 19.5472V15.6263L19.1318 22.1156C18.3533 22.5518 17.3938 22.5516 16.6152 22.1156L5.0332 15.6263V27.1937L1.46094 29.3148C1.03505 29.5854 0 29.6703 0 28.6039V11.3959C0 10.5232 0.480094 9.71694 1.25879 9.28063C2.50759 8.62682 3.79742 9.27646 3.80566 9.28063L17.873 17.18L31.918 9.28063Z" fill="#22D172"/>
<path d="M32.7324 21.085C33.1965 21.085 33.6527 21.2075 34.0547 21.4395L39.5059 24.5869C39.9078 24.8191 40.2415 25.1528 40.4736 25.5547C40.7057 25.9567 40.828 26.4128 40.8281 26.877V33.1709C40.828 33.6351 40.7057 34.0912 40.4736 34.4932C40.2415 34.8951 39.9078 35.2288 39.5059 35.4609L34.0547 38.6084C33.6527 38.8403 33.1965 38.9629 32.7324 38.9629C32.2684 38.9628 31.8121 38.8404 31.4102 38.6084L25.96 35.4609C25.558 35.2288 25.2233 34.8951 24.9912 34.4932C24.7593 34.0913 24.6368 33.6349 24.6367 33.1709V26.877C24.6368 26.4129 24.7592 25.9566 24.9912 25.5547C25.2233 25.1527 25.558 24.8191 25.96 24.5869L31.4102 21.4395C31.8121 21.2075 32.2684 21.085 32.7324 21.085ZM31.6055 25.6152C31.2465 25.6152 31.0489 25.8922 31.0488 26.2373V27.0078C30.6952 27.2268 30.3863 27.5121 30.1406 27.8477L27.1816 26.1943L27.0889 26.1426C26.9966 26.0914 26.8839 26.1581 26.8838 26.2637V27.2705C26.884 27.3691 26.9101 27.4667 26.96 27.5518C27.0098 27.6366 27.0813 27.7067 27.167 27.7549L29.585 29.1064C29.5666 29.1989 29.5523 29.2927 29.542 29.3877H27.1611C27.008 29.3877 26.8839 29.5124 26.8838 29.665V30.4971C26.8837 30.5335 26.8904 30.5698 26.9043 30.6035C26.9182 30.6372 26.9391 30.6676 26.9648 30.6934C26.9905 30.719 27.0211 30.7391 27.0547 30.7529C27.0884 30.7668 27.1247 30.7746 27.1611 30.7744H29.5225V30.9863L27.1611 32.3496C26.9894 32.4484 26.8838 32.6316 26.8838 32.8301V33.8701C26.8838 33.8944 26.8903 33.9184 26.9023 33.9395C26.9145 33.9605 26.9321 33.9781 26.9531 33.9902C26.9742 34.0024 26.9981 34.0088 27.0225 34.0088C27.0468 34.0088 27.0708 34.0024 27.0918 33.9902L29.7783 32.4395C30.0241 33.0178 30.4337 33.5116 30.957 33.8594C31.4803 34.2071 32.0944 34.394 32.7227 34.3965C33.3511 34.3989 33.9671 34.2167 34.4932 33.873C35.019 33.5295 35.4324 33.0391 35.6826 32.4629L38.3779 34.0176C38.399 34.0297 38.423 34.0362 38.4473 34.0361C38.4715 34.0361 38.4956 34.0297 38.5166 34.0176C38.5375 34.0054 38.5553 33.9877 38.5674 33.9668C38.5793 33.946 38.5858 33.9224 38.5859 33.8984V32.8574C38.5859 32.6594 38.4798 32.4772 38.3086 32.3779L35.9492 31.0156V30.7744H38.3086C38.345 30.7745 38.3814 30.7668 38.415 30.7529C38.4486 30.7391 38.4792 30.719 38.5049 30.6934C38.5305 30.6677 38.5506 30.637 38.5645 30.6035C38.5783 30.5699 38.586 30.5335 38.5859 30.4971V29.665C38.5859 29.5123 38.4617 29.3877 38.3086 29.3877H35.9297C35.9185 29.2837 35.9021 29.1816 35.8809 29.0811L38.3018 27.7285C38.4769 27.6306 38.5859 27.4452 38.5859 27.2441V26.2383C38.586 26.2142 38.5793 26.1899 38.5674 26.1689C38.5555 26.1481 38.5382 26.1304 38.5176 26.1182C38.497 26.1061 38.4731 26.1 38.4492 26.0996C38.4254 26.0993 38.4017 26.1047 38.3809 26.1162L38.2871 26.168L35.3164 27.8271C35.0613 27.4844 34.7404 27.1957 34.373 26.9775V26.2383C34.373 25.8931 34.1759 25.6153 33.8428 25.6152H33.3154C33.1515 25.6152 32.9874 25.6778 32.9873 25.8926V26.5391C32.9045 26.5327 32.8208 26.5289 32.7363 26.5283C32.6343 26.5286 32.5337 26.5338 32.4346 26.543V25.8926C32.4346 25.7191 32.3627 25.6152 32.1475 25.6152H31.6055ZM34.5635 31.1807C34.5632 31.5456 34.4544 31.9028 34.25 32.2051C34.0456 32.5073 33.7545 32.7409 33.416 32.877V30.9463C33.4164 30.6451 33.5796 30.3664 33.8428 30.2197L34.5635 29.8164V31.1807ZM31.6045 30.2344C31.8677 30.3815 32.0303 30.6592 32.0303 30.96V32.8672C31.6981 32.7278 31.4144 32.4932 31.2148 32.1934C31.0153 31.8935 30.9085 31.5409 30.9082 31.1807V29.8447L31.6045 30.2344ZM32.7363 27.915C32.9911 27.9147 33.2436 27.9671 33.4766 28.0703C33.7094 28.1735 33.918 28.3249 34.0889 28.5137L32.7109 29.2832L31.3672 28.5322C31.5383 28.3379 31.7493 28.1827 31.9854 28.0762C32.2215 27.9697 32.4773 27.9147 32.7363 27.915Z" fill="#22D172"/>
<path d="M50.9968 34.9518H49.5137V24.7471H50.9968V34.9518Z" fill="#84A0BE"/>
<path d="M56.0447 35.0879C55.3644 35.0879 54.7521 34.9337 54.2079 34.6253C53.6636 34.3169 53.235 33.8973 52.9221 33.3667C52.6091 32.8315 52.4526 32.226 52.4526 31.5502C52.4526 30.879 52.6091 30.278 52.9221 29.7474C53.235 29.2122 53.6636 28.7904 54.2079 28.482C54.7521 28.1691 55.3644 28.0126 56.0447 28.0126C56.7296 28.0126 57.3419 28.1691 57.8816 28.482C58.4213 28.7904 58.8454 29.2122 59.1538 29.7474C59.4667 30.278 59.6232 30.879 59.6232 31.5502C59.6232 32.226 59.4667 32.8315 59.1538 33.3667C58.8454 33.8973 58.4213 34.3169 57.8816 34.6253C57.3419 34.9337 56.7296 35.0879 56.0447 35.0879ZM56.0379 33.8361C56.4506 33.8361 56.818 33.7363 57.14 33.5368C57.4666 33.3327 57.7228 33.0605 57.9088 32.7204C58.0993 32.3757 58.1945 31.9856 58.1945 31.5502C58.1945 31.1148 58.0993 30.7271 57.9088 30.3869C57.7228 30.0422 57.4666 29.7701 57.14 29.5705C56.818 29.3664 56.4506 29.2644 56.0379 29.2644C55.6297 29.2644 55.2624 29.3664 54.9358 29.5705C54.6092 29.7701 54.3507 30.0422 54.1602 30.3869C53.9743 30.7271 53.8813 31.1148 53.8813 31.5502C53.8813 31.9856 53.9743 32.3757 54.1602 32.7204C54.3507 33.0605 54.6092 33.3327 54.9358 33.5368C55.2624 33.7363 55.6297 33.8361 56.0379 33.8361Z" fill="#84A0BE"/>
<path d="M66.855 33.9382C66.5239 34.3055 66.127 34.589 65.6644 34.7886C65.2018 34.9881 64.7006 35.0879 64.1609 35.0879C63.4806 35.0879 62.8683 34.9337 62.324 34.6253C61.7843 34.3169 61.358 33.8951 61.045 33.3599C60.7321 32.8247 60.5756 32.2215 60.5756 31.5502C60.5756 30.8745 60.7321 30.2712 61.045 29.7406C61.358 29.2054 61.7843 28.7836 62.324 28.4752C62.8683 28.1668 63.4806 28.0126 64.1609 28.0126C64.6961 28.0126 65.195 28.1124 65.6576 28.3119C66.1202 28.507 66.5171 28.7882 66.8482 29.1555L66.025 30.0195C65.8027 29.7837 65.5351 29.6023 65.2222 29.4753C64.9138 29.3437 64.585 29.278 64.2357 29.278C63.8049 29.278 63.4216 29.3755 63.086 29.5705C62.7504 29.7655 62.4873 30.0331 62.2968 30.3733C62.1063 30.7089 62.0111 31.099 62.0111 31.5434C62.0111 31.9834 62.1063 32.3757 62.2968 32.7204C62.4873 33.0651 62.7504 33.3349 63.086 33.53C63.4216 33.725 63.8049 33.8225 64.2357 33.8225C64.585 33.8225 64.9161 33.7567 65.229 33.6252C65.5419 33.4937 65.8073 33.3123 66.025 33.081L66.855 33.9382Z" fill="#84A0BE"/>
<path d="M73.9847 34.9518H72.7805L72.6989 34.081C72.4494 34.3985 72.1342 34.6457 71.7532 34.8226C71.3723 34.9994 70.9505 35.0879 70.4878 35.0879C70.0026 35.0879 69.5694 34.9926 69.1884 34.8022C68.8075 34.6117 68.5081 34.3509 68.2904 34.0198C68.0727 33.6887 67.9639 33.3123 67.9639 32.8905C67.9639 32.446 68.0818 32.0559 68.3176 31.7203C68.5535 31.3802 68.8755 31.1148 69.2837 30.9243C69.6919 30.7293 70.1568 30.6318 70.6783 30.6318C71.0049 30.6318 71.336 30.6704 71.6716 30.7475C72.0118 30.8246 72.3179 30.9334 72.59 31.074V30.8223C72.59 30.4912 72.5039 30.2077 72.3315 29.9719C72.1637 29.7315 71.9324 29.5478 71.6376 29.4208C71.3473 29.2939 71.0253 29.2304 70.6715 29.2304C70.3586 29.2304 70.0388 29.2848 69.7123 29.3936C69.3903 29.5025 69.0864 29.6703 68.8007 29.8971L68.3789 28.7609C68.7916 28.516 69.2202 28.3301 69.6647 28.2031C70.1137 28.0761 70.5536 28.0126 70.9845 28.0126C71.6013 28.0126 72.1319 28.135 72.5764 28.38C73.0254 28.6249 73.3724 28.9741 73.6173 29.4277C73.8622 29.8767 73.9847 30.4073 73.9847 31.0196V34.9518ZM70.76 33.9041C71.082 33.9041 71.3791 33.8384 71.6512 33.7068C71.9233 33.5708 72.1433 33.3803 72.3111 33.1354C72.4834 32.8859 72.5764 32.5957 72.59 32.2646V32.1693C72.3587 31.997 72.0979 31.8632 71.8077 31.7679C71.5219 31.6682 71.2294 31.6183 70.9301 31.6183C70.472 31.6183 70.091 31.7271 69.7871 31.9448C69.4832 32.1625 69.3313 32.4415 69.3313 32.7816C69.3313 32.9948 69.3925 33.1875 69.515 33.3599C69.642 33.5277 69.8121 33.6615 70.0252 33.7613C70.2429 33.8565 70.4878 33.9041 70.76 33.9041Z" fill="#84A0BE"/>
<path d="M77.2978 34.9518H75.8147V24.7471H77.2978V34.9518Z" fill="#84A0BE"/>
<path d="M6.82556 29.3443C7.15662 29.1578 7.66608 29.1466 7.98767 29.3443L16.6136 34.1783C17.3923 34.6146 18.3525 34.6146 19.1312 34.1783L22.6361 32.2135V33.1725C22.6364 33.9872 22.8508 34.7881 23.2582 35.4937C23.538 35.9783 23.9041 36.4046 24.3334 36.7574L19.1312 39.6725C18.3525 40.1088 17.3923 40.1088 16.6136 39.6725L3.43103 32.2857C3.18111 32.1807 2.97095 31.6607 3.43103 31.358L6.82556 29.3443Z" fill="white"/>
</svg>
