<svg width="41" height="40" viewBox="0 0 41 40" fill="none" xmlns="http://www.w3.org/2000/svg">
<path d="M16.6147 0.327232C17.3934 -0.109077 18.3527 -0.109077 19.1314 0.327232C19.1314 0.327232 29.1257 5.92712 29.7474 6.27544C30.1712 6.48986 30.2096 7.0655 29.7474 7.32508C28.8933 7.80193 27.6834 8.47667 26.8423 8.94561C26.2357 9.28387 25.497 9.28302 24.891 8.9435L19.1314 5.71635C18.3527 5.28004 17.3934 5.28004 16.6147 5.71635L10.8484 8.94721C10.2421 9.28695 9.50347 9.28788 8.8965 8.94924C8.02809 8.46475 6.7662 7.76106 5.90786 7.28379C5.51524 7.11518 5.43352 6.61464 5.90786 6.32634L16.6147 0.327232Z" fill="white"/>
<path d="M31.918 9.28063C31.918 9.28063 33.1661 8.52836 34.4883 9.28063C35.2667 9.71699 35.7461 10.5234 35.7461 11.3959V20.1048L35.0547 19.7064C34.3488 19.2991 33.5474 19.0844 32.7324 19.0843C32.0317 19.0843 31.3413 19.2439 30.7129 19.5472V15.6263L19.1318 22.1156C18.3533 22.5518 17.3938 22.5516 16.6152 22.1156L5.0332 15.6263V27.1937L1.46094 29.3148C1.03505 29.5854 0 29.6703 0 28.6039V11.3959C0 10.5232 0.480094 9.71694 1.25879 9.28063C2.50759 8.62682 3.79742 9.27646 3.80566 9.28063L17.873 17.18L31.918 9.28063Z" fill="#22D172"/>
<path d="M32.7324 21.085C33.1965 21.085 33.6527 21.2075 34.0547 21.4395L39.5059 24.5869C39.9078 24.8191 40.2415 25.1528 40.4736 25.5547C40.7057 25.9567 40.828 26.4128 40.8281 26.877V33.1709C40.828 33.6351 40.7057 34.0912 40.4736 34.4932C40.2415 34.8951 39.9078 35.2288 39.5059 35.4609L34.0547 38.6084C33.6527 38.8403 33.1965 38.9629 32.7324 38.9629C32.2684 38.9628 31.8121 38.8404 31.4102 38.6084L25.96 35.4609C25.558 35.2288 25.2233 34.8951 24.9912 34.4932C24.7593 34.0913 24.6368 33.6349 24.6367 33.1709V26.877C24.6368 26.4129 24.7592 25.9566 24.9912 25.5547C25.2233 25.1527 25.558 24.8191 25.96 24.5869L31.4102 21.4395C31.8121 21.2075 32.2684 21.085 32.7324 21.085ZM31.6055 25.6152C31.2465 25.6152 31.0489 25.8922 31.0488 26.2373V27.0078C30.6952 27.2268 30.3863 27.5121 30.1406 27.8477L27.1816 26.1943L27.0889 26.1426C26.9966 26.0914 26.8839 26.1581 26.8838 26.2637V27.2705C26.884 27.3691 26.9101 27.4667 26.96 27.5518C27.0098 27.6366 27.0813 27.7067 27.167 27.7549L29.585 29.1064C29.5666 29.1989 29.5523 29.2927 29.542 29.3877H27.1611C27.008 29.3877 26.8839 29.5124 26.8838 29.665V30.4971C26.8837 30.5335 26.8904 30.5698 26.9043 30.6035C26.9182 30.6372 26.9391 30.6676 26.9648 30.6934C26.9905 30.719 27.0211 30.7391 27.0547 30.7529C27.0884 30.7668 27.1247 30.7746 27.1611 30.7744H29.5225V30.9863L27.1611 32.3496C26.9894 32.4484 26.8838 32.6316 26.8838 32.8301V33.8701C26.8838 33.8944 26.8903 33.9184 26.9023 33.9395C26.9145 33.9605 26.9321 33.9781 26.9531 33.9902C26.9742 34.0024 26.9981 34.0088 27.0225 34.0088C27.0468 34.0088 27.0708 34.0024 27.0918 33.9902L29.7783 32.4395C30.0241 33.0178 30.4337 33.5116 30.957 33.8594C31.4803 34.2071 32.0944 34.394 32.7227 34.3965C33.3511 34.3989 33.9671 34.2167 34.4932 33.873C35.019 33.5295 35.4324 33.0391 35.6826 32.4629L38.3779 34.0176C38.399 34.0297 38.423 34.0362 38.4473 34.0361C38.4715 34.0361 38.4956 34.0297 38.5166 34.0176C38.5375 34.0054 38.5553 33.9877 38.5674 33.9668C38.5793 33.946 38.5858 33.9224 38.5859 33.8984V32.8574C38.5859 32.6594 38.4798 32.4772 38.3086 32.3779L35.9492 31.0156V30.7744H38.3086C38.345 30.7745 38.3814 30.7668 38.415 30.7529C38.4486 30.7391 38.4792 30.719 38.5049 30.6934C38.5305 30.6677 38.5506 30.637 38.5645 30.6035C38.5783 30.5699 38.586 30.5335 38.5859 30.4971V29.665C38.5859 29.5123 38.4617 29.3877 38.3086 29.3877H35.9297C35.9185 29.2837 35.9021 29.1816 35.8809 29.0811L38.3018 27.7285C38.4769 27.6306 38.5859 27.4452 38.5859 27.2441V26.2383C38.586 26.2142 38.5793 26.1899 38.5674 26.1689C38.5555 26.1481 38.5382 26.1304 38.5176 26.1182C38.497 26.1061 38.4731 26.1 38.4492 26.0996C38.4254 26.0993 38.4017 26.1047 38.3809 26.1162L38.2871 26.168L35.3164 27.8271C35.0613 27.4844 34.7404 27.1957 34.373 26.9775V26.2383C34.373 25.8931 34.1759 25.6153 33.8428 25.6152H33.3154C33.1515 25.6152 32.9874 25.6778 32.9873 25.8926V26.5391C32.9045 26.5327 32.8208 26.5289 32.7363 26.5283C32.6343 26.5286 32.5337 26.5338 32.4346 26.543V25.8926C32.4346 25.7191 32.3627 25.6152 32.1475 25.6152H31.6055ZM34.5635 31.1807C34.5632 31.5456 34.4544 31.9028 34.25 32.2051C34.0456 32.5073 33.7545 32.7409 33.416 32.877V30.9463C33.4164 30.6451 33.5796 30.3664 33.8428 30.2197L34.5635 29.8164V31.1807ZM31.6045 30.2344C31.8677 30.3815 32.0303 30.6592 32.0303 30.96V32.8672C31.6981 32.7278 31.4144 32.4932 31.2148 32.1934C31.0153 31.8935 30.9085 31.5409 30.9082 31.1807V29.8447L31.6045 30.2344ZM32.7363 27.915C32.9911 27.9147 33.2436 27.9671 33.4766 28.0703C33.7094 28.1735 33.918 28.3249 34.0889 28.5137L32.7109 29.2832L31.3672 28.5322C31.5383 28.3379 31.7493 28.1827 31.9854 28.0762C32.2215 27.9697 32.4773 27.9147 32.7363 27.915Z" fill="#22D172"/>
<path d="M6.82556 29.3443C7.15662 29.1578 7.66608 29.1466 7.98767 29.3443L16.6136 34.1783C17.3923 34.6146 18.3525 34.6146 19.1312 34.1783L22.6361 32.2135V33.1725C22.6364 33.9872 22.8508 34.7881 23.2582 35.4937C23.538 35.9783 23.9041 36.4046 24.3334 36.7574L19.1312 39.6725C18.3525 40.1088 17.3923 40.1088 16.6136 39.6725L3.43103 32.2857C3.18111 32.1807 2.97095 31.6607 3.43103 31.358L6.82556 29.3443Z" fill="white"/>
</svg>
